HIERARCHY
ROOT ui
{
	 OFFSET 0 0 0
	 CHANNELS 3 XPosition YPosition Z Position
	 EndSite
	 {
	 OFFSET 0 -1 0
	 }
}
ROOT li
{
	 OFFSET 0 0 0
	 CHANNELS 3 XPosition YPosition Z Position
	 EndSite
	 {
	 OFFSET 0 -1 0
	 }
}
ROOT ul
{
	 OFFSET 0 0 0
	 CHANNELS 3 XPosition YPosition Z Position
	 EndSite
	 {
	 OFFSET 0 -1 0
	 }
}
ROOT ll
{
	 OFFSET 0 0 0
	 CHANNELS 3 XPosition YPosition Z Position
	 EndSite
	 {
	 OFFSET 0 -1 0
	 }
}
ROOT tt
{
	 OFFSET 0 0 0
	 CHANNELS 3 XPosition YPosition Z Position
	 EndSite
	 {
	 OFFSET 0 -1 0
	 }
}
ROOT tb
{
	 OFFSET 0 0 0
	 CHANNELS 3 XPosition YPosition Z Position
	 EndSite
	 {
	 OFFSET 0 -1 0
	 }
}
ROOT td
{
	 OFFSET 0 0 0
	 CHANNELS 3 XPosition YPosition Z Position
	 EndSite
	 {
	 OFFSET 0 -1 0
	 }
}
ROOT v
{
	 OFFSET 0 0 0
	 CHANNELS 3 XPosition YPosition Z Position
	 EndSite
	 {
	 OFFSET 0 -1 0
	 }
}
ROOT bn
{
	 OFFSET 0 0 0
	 CHANNELS 3 XPosition YPosition Z Position
	 EndSite
	 {
	 OFFSET 0 -1 0
	 }
}
MOTION
Frames: 18
Frame Time: 0.002
6.464499980211257E-5	-9.65839996933937E-5	0		0.43952325439453127	-2.300757568359375	0		-1.08411181640625	-0.004268723964691162	0		-0.7011731567382813	-2.477123046875	0		1.60941748046875	-0.5356492309570312	0		3.0584833984375	0.006253076076507568	0		4.5243857421875	0.12586455535888671	0		5.5724404296875	0.18677572631835937	0		-0.3323238525390625	5.86638134765625	0		
0.0013322240114212035	-8.162140250205994E-4	0		0.41288491821289064	-2.300054931640625	0		-1.1568216552734376	-0.002946644067764282	0		-0.7398480224609375	-2.479282958984375	0		1.6017474365234374	-0.5331845092773437	0		3.040679931640625	9.124990105628967E-4	0		4.52176611328125	0.13335289001464845	0		5.58396240234375	0.17162977600097656	0		-0.31907794189453126	5.877474609375	0		
0.0025743889808654786	-0.0015279289484024048	0		0.44015740966796874	-2.30413037109375	0		-1.14372607421875	-0.013870314598083496	0		-0.7415810546875	-2.483975341796875	0		1.6030074462890624	-0.5338428955078125	0		3.01695361328125	0.0026652390956878663	0		4.5060927734375	0.139038330078125	0		5.58258837890625	0.15003318786621095	0		-0.4503375549316406	5.8566728515625	0		
0.0037817130088806153	-0.0022242209911346434	0		0.39056146240234374	-2.29607373046875	0		-1.138460693359375	-0.01066254234313965	0		-0.7633335571289063	-2.4873623046875	0		1.6101300048828124	-0.5415730590820312	0		3.056997314453125	-0.009496743202209473	0		4.5252646484375	0.1362286376953125	0		5.5792783203125	0.16658828735351563	0		-0.31407516479492187	5.87200244140625	0		
0.019144996643066407	0.010898560523986816	0		0.448776123046875	-2.29855908203125	0		-1.1332552490234375	-0.008430237770080567	0		-0.7251107177734375	-2.489594970703125	0		1.60846875	-0.5311529541015625	0		3.042465087890625	0.01115640926361084	0		4.52253857421875	0.14375621032714844	0		5.58649853515625	0.16031068420410155	0		-0.3140706481933594	5.8733330078125	0		
-0.0167751522064209	0.008790454864501952	0		0.41992611694335935	-2.300755126953125	0		-1.1361927490234376	-0.012050036430358887	0		-0.737869873046875	-2.48605859375	0		1.6034754638671875	-0.5396591796875	0		3.026326416015625	-0.006146121978759766	0		4.52465380859375	0.14423733520507812	0		5.5809033203125	0.1649043884277344	0		-0.31413113403320314	5.87369482421875	0		
-0.010797895431518555	0.004111166000366211	0		0.44495465087890623	-2.3066953125	0		-1.1470113525390624	-0.0025186259746551513	0		-0.7428472290039062	-2.492600341796875	0		1.60452685546875	-0.5402194213867187	0		3.021463623046875	4.21068012714386E-4	0		4.5205849609375	0.13683544921875	0		5.574544921875	0.169571044921875	0		-0.32739572143554685	5.86428125	0		
-0.016943185806274415	-0.0033549849987030028	0		0.41797579956054687	-2.30684765625	0		-1.1342015380859376	-0.013288976669311524	0		-0.7349971313476562	-2.50528759765625	0		1.599382080078125	-0.5486553955078125	0		3.05340087890625	-0.0015087050199508666	0		4.5166513671875	0.14446371459960938	0		5.58650634765625	0.14596513366699218	0		-0.4599193725585938	5.8426201171875	0		
-0.01391985034942627	0.007090426921844482	0		0.4229718017578125	-2.302419189453125	0		-1.1292930908203125	-0.010900080680847168	0		-0.7700349731445313	-2.503314208984375	0		1.6063759765625	-0.5412256469726563	0		3.033383544921875	0.006345861911773681	0		4.51060009765625	0.15015501403808593	0		5.58712744140625	0.1453019561767578	0		-0.31175933837890624	5.87197021484375	0		
-0.0051636710166931155	0.005496559143066407	0		0.4258270263671875	-2.3009169921875	0		-1.128521240234375	-0.01140616798400879	0		-0.697282470703125	-2.509843017578125	0		1.607160400390625	-0.5416660766601562	0		3.044953125	-0.008216537475585938	0		4.5223525390625	0.14862673950195313	0		5.57932666015625	0.17959568786621094	0		-0.31112872314453127	5.87148388671875	0		
-0.007530807018280029	0.0021075029373168945	0		0.4484527587890625	-2.3086533203125	0		-1.127845458984375	-0.011864097595214843	0		-0.7365597534179688	-2.510718505859375	0		1.59869189453125	-0.5529317016601563	0		3.057970947265625	0.015246640205383301	0		4.5120400390625	0.149455078125	0		5.58622998046875	0.17884208679199218	0		-0.32374322509765624	5.8602314453125	0		
-0.011893054008483887	0.0057933697700500485	0		0.44705532836914064	-2.310999755859375	0		-1.1272650146484375	-0.012273913383483886	0		-0.6731307983398438	-2.526018310546875	0		1.5962274169921875	-0.5572382202148437	0		3.0413095703125	-0.0018264379501342774	0		4.514630859375	0.15014073181152343	0		5.58440478515625	0.1611614227294922	0		-0.32426339721679687	5.861853515625	0		
-0.013562565803527831	-0.005515613079071045	0		0.44554949951171874	-2.3142998046875	0		-1.1267774658203125	-0.012636399269104004	0		-0.7445393676757812	-2.522344482421875	0		1.5908128662109375	-0.5514574584960937	0		3.02089892578125	0.005199079990386963	0		4.51310107421875	0.14892753601074218	0		5.580578125	0.17822575378417968	0		-0.30977447509765627	5.8703076171875	0		
-0.003021312952041626	0.004047838211059571	0		0.4241134948730469	-2.306270751953125	0		-1.118278564453125	-0.006067290782928467	0		-0.69824853515625	-2.534306640625	0		1.600194580078125	-0.55384521484375	0		3.05523828125	4.8515400290489194E-4	0		4.5175830078125	0.1546709289550781	0		5.59143115234375	0.15505931091308595	0		-0.3075397033691406	5.86698046875	0		
-0.0027017149925231934	0.0037992949485778807	0		0.42853570556640624	-2.302568115234375	0		-1.1888804931640624	-3.2869899272918704E-4	0		-0.7308038330078125	-2.529100341796875	0		1.600525390625	-0.554061767578125	0		3.039858154296875	0.021523157119750978	0		4.51299951171875	0.16158309936523438	0		5.59586962890625	0.14256333923339845	0		-0.30830865478515623	5.86873974609375	0		
0.022529848098754884	0.0022384181022644042	0		0.448697265625	-2.312049072265625	0		-1.117710205078125	-0.0065647950172424314	0		-0.66771337890625	-2.54421337890625	0		1.5887711181640625	-0.5550670776367187	0		3.0267666015625	-0.002438723087310791	0		4.51015966796875	0.1555048828125	0		5.581275390625	0.17749822998046874	0		-0.30915567016601564	5.8695419921875	0		
-0.005310658931732178	4.7087898850440977E-4	0		0.42092367553710935	-2.3118095703125	0		-1.1965455322265626	-0.007627700805664063	0		-0.7513071899414062	-2.53119921875	0		1.5889654541015625	-0.5552059936523438	0		3.022051513671875	0.004516540050506591	0		4.51034228515625	0.15541461181640626	0		5.5784853515625	0.16535981750488282	0		-0.32222314453125	5.85855712890625	0		
-0.005182292938232422	3.429349958896637E-4	0		0.4470386657714844	-2.315300048828125	0		-1.1173966064453125	-0.006892039775848389	0		-0.68532080078125	-2.544271728515625	0		1.5829886474609376	-0.5632261962890625	0		3.0221796875	0.004430178165435791	0		4.51046875	0.15534869384765626	0		5.5869345703125	0.1303782501220703	0		-0.4564594421386719	5.83932666015625	0		
